<svg width="580" height="400" xmlns="http://www.w3.org/2000/svg">
 <!-- Created with Method Draw - http://github.com/duopixel/Method-Draw/ -->

 <g>
  <title>background</title>
  <rect fill="#fff" id="canvas_background" height="402" width="582" y="-1" x="-1"/>
  <g display="none" overflow="visible" y="0" x="0" height="100%" width="100%" id="canvasGrid">
   <rect fill="url(#gridpattern)" stroke-width="0" y="0" x="0" height="100%" width="100%"/>
  </g>
 </g>
 <g>
  <title>Layer 1</title>
  <path d="m211.5,99.453125c-1,2 -2.333282,3.865646 -3,6c-2.108368,6.749428 -2.493454,10.878555 -3,14c-0.320358,1.974174 0,6 0,11c0,5 0,10 0,12c0,4 0,7 0,10c0,7 1.102356,15.321396 4,22c2.320847,5.349182 5.771957,9.119553 9,15c2.805908,5.11145 6.549011,8.606415 10,14c2.410278,3.767044 5.496231,9.907791 6,14c0.488739,3.970032 0,8 0,11c0,3 0,5 0,10c0,3 -1.334671,8.181427 0,13c1.556473,5.619385 7,11 12,16c5,5 11.091156,10.795685 18,14c6.085541,2.822449 13.468018,6.985901 23,12c6.381989,3.357117 10.924835,6.284729 18,8c4.955475,1.201385 8.925781,2.497559 14,3c5.970795,0.591217 13.044678,0.238617 19,-1c4.036713,-0.8396 10.02475,-3.939178 15,-6c7.036072,-2.914429 11.776367,-5.408936 17,-8c4.82428,-2.392975 10.234009,-3.49295 15,-6c3.190979,-1.678558 6.811462,-4.134644 9,-7c1.919495,-2.513092 5.76355,-9.092712 9,-17c3.730743,-9.114914 6.516022,-17.808731 10,-28c2.35495,-6.888702 3.533752,-13.096603 5,-19c0.762268,-3.069031 2,-8 2,-11c0,-4 0.493469,-8.878555 1,-12c0.48056,-2.961258 1.376678,-6.887314 3,-13c1.308746,-4.928207 2.112152,-8.918304 5,-13c2.082458,-2.943359 2.704071,-6.189911 6,-11c6.444794,-9.405563 10.473297,-14.293655 14,-20c2.628662,-4.25325 5.376404,-7.080315 7,-11c1.530731,-3.695518 1.458801,-6.693436 2,-8c0.38269,-0.923882 0,-3 0,-4c0,-4 -1.448395,-6.805649 -3,-11c-1.430481,-3.866997 -1.296997,-7.613838 -4,-10c-1.676331,-1.479836 -4.206818,-2.81266 -6,-5c-2.285889,-2.788322 -5.257263,-3.552185 -9,-6c-6.536438,-4.274933 -11.375366,-8.940041 -17,-12c-5.555634,-3.022411 -9.920349,-5.167961 -14,-7c-4.912567,-2.206066 -9.887329,-4.37669 -16,-6c-4.928192,-1.308754 -9.556122,-2.135464 -16,-4c-9.65387,-2.79335 -13.878571,-2.493458 -17,-3c-4.935425,-0.800911 -11,0 -18,0c-9,0 -18.029205,-0.591225 -24,0c-5.074219,0.502445 -10.111359,0.335857 -18,2c-10.215485,2.154999 -15.823761,4.486256 -18,5c-3.893005,0.91901 -6.876038,2.343151 -12,4c-3.923096,1.268555 -7.087433,3.793934 -12,6c-4.079666,1.832039 -9,4 -12,6c-3,2 -4,3 -5,4c-1,1 -3.150986,0.434624 -5,3c-0.584717,0.811241 -1.292892,1.292892 -2,2c-0.707108,0.707108 -2.292892,1.292892 -3,2c-0.707108,0.707108 -0.61731,1.076118 -1,2c-0.541199,1.306564 -2,1 -3,2c-1,1 -1.292892,1.292892 -2,2c-0.707108,0.707108 -0.292892,1.292892 -1,2c-0.707108,0.707108 -0.693436,2.458801 -2,3c-0.923874,0.382683 -2.292892,0.292892 -3,1c-0.707108,0.707108 -1,1 -1,2c0,1 -0.770248,1.026749 -1,2c-0.513748,2.176254 -1,3 -2,3l0,1l-1,0l0,1" id="svg_6" stroke-width="1.5" stroke="#d6d635" fill="#fffffc"/>
  <ellipse ry="38.5" rx="40.5" id="svg_7" cy="129.953125" cx="293" stroke-width="1.5" stroke="#d6d635" fill="#fcfc92"/>
 </g>
</svg>